<?xml version="1.0" encoding="UTF-8"?> <!-- Generator: Adobe Illustrator 25.0.0, SVG Export Plug-In . SVG Version: 6.00 Build 0) --> <svg xmlns="http://www.w3.org/2000/svg" xmlns:xlink="http://www.w3.org/1999/xlink" version="1.1" id="Laag_1" x="0px" y="0px" viewBox="0 0 1239.6 231.2" style="enable-background:new 0 0 1239.6 231.2;" xml:space="preserve"> <style type="text/css"> .st0{fill:#1D1E1B;} .st1{fill:#59368C;} </style> <path class="st0" d="M266.7,122.4c-16.4-0.2-29.6-13.5-29.6-29.9c-16.4,0-29.7-13.2-29.9-29.6c-6.4-1-12.9,0.1-18.6,3l-16.2,8.2 c-5.8,3-10.6,7.7-13.5,13.5l-8.2,16.1c-3,5.8-4,12.5-3,18.9l2.8,17.8c1,6.5,4.1,12.4,8.7,17.1l12.8,12.8c4.6,4.6,10.6,7.6,17,8.7 l17.9,2.8c6.4,1,13,0,18.8-3l16.2-8.2c5.8-3,10.6-7.7,13.5-13.5l8.2-16.1C266.6,135.3,267.7,128.8,266.7,122.4L266.7,122.4z M188.4,148.7c-4.1,0-7.5-3.4-7.5-7.5c0-4.1,3.4-7.5,7.5-7.5c4.1,0,7.5,3.4,7.5,7.5C195.9,145.3,192.6,148.7,188.4,148.7z M195.9,111.2c-4.1,0-7.5-3.4-7.5-7.5c0-4.1,3.4-7.5,7.5-7.5c4.1,0,7.5,3.4,7.5,7.5C203.4,107.9,200.1,111.2,195.9,111.2z M233.4,141.2c-4.1,0-7.5-3.4-7.5-7.5c0-4.1,3.4-7.5,7.5-7.5c4.1,0,7.5,3.4,7.5,7.5C240.8,137.8,237.5,141.2,233.4,141.2z"></path> <g> <path d="M13.7,106.3C13.7,57.4,46,29,83.2,29c19,0,34.4,9,44.3,19.1L110,69.5c-7.4-6.9-15.3-11.7-26-11.7 c-20.2,0-36.2,17.8-36.2,47.3c0,30.3,14.1,47.9,35.6,47.9c12.1,0,21.6-6,28.8-13.8l17.6,20.9c-12.2,14.2-28.5,21.6-47.6,21.6 C44.9,181.8,13.7,155.9,13.7,106.3z"></path> </g> <g> <path d="M291.1,123.4c0-37.3,26.2-58.8,54.6-58.8c28.4,0,54.6,21.5,54.6,58.8c0,37.2-26.2,58.7-54.6,58.7 C317.4,182.2,291.1,160.6,291.1,123.4z M366.3,123.4c0-19.4-6.8-32-20.6-32s-20.6,12.6-20.6,32s6.8,31.9,20.6,31.9 S366.3,142.9,366.3,123.4z"></path> <path d="M421.3,21.1h32.5v90.7h0.8l35.6-44.5h36.1l-39.3,46.2l42.2,65.9h-36L468,135.7l-14.2,16.1v27.6h-32.5V21.1z"></path> <path d="M542.5,33.6c0-10.2,8.1-17.4,19.2-17.4c11.1,0,19.2,7.2,19.2,17.4c0,10.1-8.1,17.4-19.2,17.4 C550.6,50.9,542.5,43.7,542.5,33.6z M545.1,67.3h33.2v112.1h-33.2V67.3z"></path> <path d="M601,123.4c0-36.4,26-58.8,52.9-58.8c31.9,0,47.8,23.2,47.8,53.8c0,6-0.7,12-1.4,14.7h-67.1c3,16.3,14.1,23.7,29.1,23.7 c8.5,0,16.1-2.6,24.2-7.3l11,20c-11.5,8-26.5,12.6-39.8,12.6C625.7,182.2,601,160.6,601,123.4z M673.2,111.2 c0-12.3-5.4-21.2-18.6-21.2c-10.5,0-19.6,7-21.8,21.2H673.2z"></path> </g> <g> <path class="st1" d="M741.8,32h33.3v119.4h58.1v27.9h-91.4V32z"></path> <path class="st1" d="M846.4,123.3c0-36.4,26-58.8,52.9-58.8c31.9,0,47.8,23.2,47.8,53.8c0,6-0.7,12-1.4,14.7h-67.1 c3,16.3,14.1,23.7,29.1,23.7c8.5,0,16.1-2.6,24.2-7.3l11,20c-11.5,8-26.5,12.6-39.8,12.6C871.1,182,846.4,160.4,846.4,123.3z M918.6,111c0-12.3-5.4-21.2-18.6-21.2c-10.5,0-19.6,7-21.8,21.2H918.6z"></path> <path class="st1" d="M960.8,198.5c0-9.3,5.6-16.8,15.9-22.6v-0.9c-5.8-3.9-10.2-9.8-10.2-19c0-8.1,5.4-16,12.5-21v-0.9 c-7.9-5.5-15-16-15-29.1c0-26.9,22.2-40.6,46.4-40.6c6.2,0,12.3,1,17.4,2.7h41v24.2h-18c2.1,3.3,3.8,8.9,3.8,14.8 c0,25.8-19.6,37.7-44.1,37.7c-4.1,0-8.7-0.7-13.7-2.2c-2.7,2.4-3.9,4.4-3.9,8.3c0,5.5,4.5,8.2,16.8,8.2h18.2 c27.5,0,42.8,8.4,42.8,28.5c0,23.3-24.3,40.3-62.8,40.3C981.6,226.9,960.8,218.5,960.8,198.5z M1038.7,192.4 c0-7.1-6.1-8.7-17.1-8.7h-11.6c-7.7,0-12.1-0.5-15.7-1.4c-4.1,3.5-6.1,7-6.1,11c0,8.5,9.8,12.9,24.9,12.9 C1028,206.1,1038.7,200.1,1038.7,192.4z M1025.6,105c0-11.9-6.5-18.2-15.3-18.2S995,93,995,105c0,12.3,6.6,18.7,15.3,18.7 S1025.6,117.3,1025.6,105z"></path> <path class="st1" d="M1085.8,33.4c0-10.2,8.1-17.4,19.2-17.4s19.2,7.2,19.2,17.4c0,10.1-8.1,17.4-19.2,17.4 S1085.8,43.5,1085.8,33.4z M1088.4,67.2h33.2v112.1h-33.2V67.2z"></path> <path class="st1" d="M1155.3,138.5V93.2h-15.3V68.4l17.2-1.3l3.9-29.8h27.5v29.8h26.9v26.1h-26.9v44.9c0,12.7,5.8,17.8,14.5,17.8 c3.7,0,7.7-1.1,10.7-2.1l5.2,24.1c-6,1.9-14,4.1-24.9,4.1C1166.3,182,1155.3,164.5,1155.3,138.5z"></path> </g> </svg> 